<svg width="24" height="23" viewBox="0 0 24 23" fill="none" xmlns="http://www.w3.org/2000/svg">
<path d="M5.05944 3.74976C5.0589 3.74976 5.0583 3.74976 5.05776 3.74976C4.8686 3.74976 4.69069 3.81888 4.55634 3.9445C4.42052 4.07151 4.3457 4.24063 4.3457 4.42066V14.4808C4.3457 14.8497 4.66712 15.1506 5.06227 15.1515C6.72814 15.1553 9.51912 15.4807 11.4445 17.3695V6.84131C11.4445 6.71626 11.4104 6.59878 11.3461 6.50156C9.76586 4.11589 6.72908 3.75342 5.05944 3.74976Z" fill="#787D85"/>
<path d="M19.6544 14.4808V4.4206C19.6544 4.24057 19.5796 4.07145 19.4438 3.94444C19.3094 3.81882 19.1314 3.74969 18.9424 3.74969C18.9418 3.74969 18.9412 3.74969 18.9407 3.74969C17.2711 3.75342 14.2343 4.11589 12.654 6.50156C12.5897 6.59878 12.5557 6.71626 12.5557 6.84131V17.3695C14.4811 15.4807 17.272 15.1552 18.9379 15.1515C19.333 15.1505 19.6544 14.8496 19.6544 14.4808Z" fill="#787D85"/>
<path d="M21.2844 6.06976H20.7655V14.4808C20.7655 15.4227 19.9468 16.1908 18.9405 16.1931C17.5275 16.1962 15.1976 16.4553 13.5476 17.9192C16.4014 17.2642 19.4097 17.69 21.1242 18.0563C21.3383 18.102 21.5595 18.0547 21.731 17.9266C21.9019 17.7988 22 17.6077 22 17.4026V6.74054C22 6.37069 21.6789 6.06976 21.2844 6.06976Z" fill="#787D85"/>
<path d="M3.23448 14.4808V6.06976H2.71556C2.32108 6.06976 2 6.37069 2 6.74054V17.4024C2 17.6076 2.09805 17.7986 2.26896 17.9264C2.44034 18.0545 2.66135 18.1019 2.87576 18.0561C4.59024 17.6898 7.59867 17.264 10.4523 17.919C8.80231 16.4551 6.47247 16.1962 5.05947 16.193C4.05321 16.1908 3.23448 15.4227 3.23448 14.4808Z" fill="#787D85"/>
</svg>
